<?xml version="1.0" standalone="no"?>
<!DOCTYPE svg PUBLIC "-//W3C//DTD SVG 20010904//EN"
 "http://www.w3.org/TR/2001/REC-SVG-20010904/DTD/svg10.dtd">
<svg version="1.0" xmlns="http://www.w3.org/2000/svg"
 width="500.000000pt" height="500.000000pt" viewBox="0 0 500.000000 500.000000"
 preserveAspectRatio="xMidYMid meet">
<metadata>
Created by potrace 1.14, written by Peter Selinger 2001-2017
</metadata>
<g transform="translate(0.000000,500.000000) scale(0.100000,-0.100000)"
fill="#000000" stroke="none">
<path d="M0 2500 l0 -2500 2500 0 2500 0 0 2500 0 2500 -2500 0 -2500 0 0
-2500z m2985 1925 c37 -45 68 -74 80 -74 11 -1 55 6 98 14 43 8 84 15 91 15 7
0 29 -30 50 -67 20 -38 41 -75 46 -83 7 -12 38 -16 132 -20 l123 -5 116 -386
c64 -213 123 -397 132 -409 15 -22 16 -22 27 21 15 60 18 67 19 46 1 -10 -4
-38 -10 -61 -11 -43 -10 -44 31 -87 22 -24 48 -56 58 -71 9 -16 24 -28 34 -28
22 0 23 9 2 38 -8 12 -12 22 -8 22 4 0 -5 11 -20 25 -15 14 -30 25 -35 25 -4
0 -16 7 -27 15 -18 14 -17 15 8 5 23 -8 30 -6 42 11 14 21 14 21 21 -2 5 -14
3 -25 -4 -27 -6 -2 -11 -8 -11 -14 0 -6 7 -8 15 -4 8 3 15 4 15 2 0 -12 49
-137 50 -125 0 8 -16 61 -35 116 -19 56 -38 122 -41 147 -4 25 -10 43 -14 41
-7 -4 -4 -64 5 -91 2 -6 -2 -11 -9 -11 -7 0 -11 12 -9 31 3 26 2 28 -6 11 -9
-19 -10 -18 -10 5 -1 14 10 49 24 78 24 52 42 72 25 28 -5 -13 -6 -34 -3 -47
16 -74 25 -99 31 -99 4 0 16 19 26 42 23 50 33 34 16 -27 -12 -45 -6 -100 12
-111 7 -5 8 -2 3 6 -5 8 -3 11 6 8 10 -3 13 -18 11 -47 -3 -30 1 -48 14 -62
13 -14 15 -22 7 -27 -12 -7 -21 -117 -11 -127 8 -8 -13 -75 -24 -75 -4 0 -8 7
-8 15 0 9 -7 30 -16 47 -15 29 -15 30 1 25 9 -4 14 -3 10 3 -3 6 -12 10 -18
10 -7 0 -21 14 -31 31 -10 17 -20 28 -23 25 -3 -3 7 -27 23 -53 16 -26 30 -60
31 -74 0 -15 6 -38 13 -50 11 -23 11 -23 -9 1 -11 14 -21 28 -21 32 0 4 -5 19
-10 34 -17 44 -21 21 -5 -27 17 -48 60 -84 89 -73 9 3 16 1 16 -4 0 -6 17 5
38 24 20 19 49 37 63 40 15 4 33 19 44 37 31 55 76 95 131 117 29 12 60 33 69
46 21 33 37 31 29 -3 -15 -62 -59 -127 -116 -169 -32 -23 -64 -44 -70 -47 -20
-7 23 -43 46 -39 10 2 37 17 60 34 22 16 42 25 44 19 5 -15 -40 -71 -51 -64
-6 3 -7 2 -4 -4 4 -5 -7 -23 -23 -38 -30 -28 -44 -69 -17 -47 16 14 113 7 145
-10 12 -6 22 -17 22 -24 0 -7 8 -17 17 -22 14 -8 15 -14 4 -39 -6 -16 -11 -42
-9 -58 2 -31 -23 -80 -47 -88 -7 -3 -22 -3 -33 0 -18 4 -19 7 -7 30 14 26 3
83 -16 83 -6 0 -5 -8 1 -19 5 -11 10 -27 10 -36 0 -24 -60 -96 -72 -89 -6 4
-8 3 -5 -3 4 -6 -14 -21 -40 -34 -45 -23 -46 -23 -57 -5 -6 11 -19 28 -29 38
-10 11 -16 26 -13 34 3 9 1 12 -4 9 -6 -3 -10 -3 -9 2 0 4 22 26 49 48 27 22
52 48 55 59 4 10 10 15 14 10 14 -20 51 -46 51 -37 0 5 -16 21 -35 35 l-34 24
20 40 21 39 -26 -24 -26 -24 0 22 c0 15 4 20 12 15 7 -4 2 7 -11 24 -12 18
-27 32 -32 32 -6 0 -8 4 -5 9 3 5 -4 11 -17 14 -20 6 -20 4 6 -18 33 -29 47
-109 25 -135 -50 -57 -126 -49 -133 14 -2 15 -12 34 -22 43 -10 8 -11 11 -3 7
13 -7 13 -5 2 9 -12 13 -11 19 1 37 7 11 16 17 19 14 3 -3 8 -2 11 3 3 4 -1
14 -9 21 -11 10 -14 10 -14 0 -1 -22 -49 -70 -63 -62 -6 4 1 -7 17 -25 22 -23
30 -42 32 -76 3 -51 -1 -54 -31 -25 -14 13 -28 18 -39 14 -16 -6 -16 -8 -1
-24 10 -11 15 -30 13 -47 -3 -24 -9 -29 -43 -37 -48 -10 -97 -30 -53 -21 34 6
44 -9 24 -36 -13 -19 -13 -25 2 -58 19 -41 32 -53 50 -46 18 7 15 -9 -9 -39
-11 -14 -16 -26 -10 -26 13 0 51 49 51 66 0 8 5 14 11 14 6 0 7 5 2 13 -4 6
-9 35 -10 63 -3 47 0 54 36 92 38 40 40 41 61 24 25 -20 36 -85 21 -124 -6
-18 -28 -36 -59 -52 -35 -18 -53 -34 -60 -55 -14 -39 -37 -50 -97 -45 -58 5
-52 -10 10 -25 22 -5 32 -9 22 -10 -10 -1 -16 -5 -13 -10 5 -8 -26 -22 -94
-45 -9 -3 -7 -5 7 -5 12 -1 34 4 49 9 15 6 29 8 32 6 7 -8 -40 -45 -65 -52
-26 -7 -31 -32 -7 -41 9 -3 26 5 43 21 26 25 61 35 61 18 0 -17 -32 -52 -42
-46 -7 4 -8 2 -4 -4 4 -6 1 -22 -5 -34 -11 -22 -11 -22 6 -8 17 14 17 13 11
-10 -6 -20 -2 -17 18 12 24 34 29 37 49 25 12 -6 27 -18 33 -26 8 -11 27 -13
77 -8 42 4 69 2 73 -4 8 -13 -35 -99 -49 -99 -6 0 -7 -3 -4 -7 9 -8 47 26 47
43 0 7 5 16 11 20 24 14 -2 -51 -32 -82 l-30 -31 26 -46 c15 -25 25 -57 23
-69 -2 -14 2 -22 9 -21 7 2 15 -13 18 -35 3 -20 8 -44 9 -53 2 -9 -1 -24 -7
-34 -7 -13 -6 -16 2 -11 14 9 14 -9 0 -74 -12 -55 -23 -58 -33 -8 -11 58 -40
148 -47 148 -4 0 -5 9 -2 20 3 11 9 20 14 20 5 0 9 4 9 9 0 14 -31 42 -40 36
-4 -3 -6 4 -3 15 7 28 -21 26 -41 -2 -11 -16 -16 -18 -17 -8 0 8 -2 23 -4 33
-2 11 3 17 16 17 17 0 43 38 34 48 -9 10 -95 -61 -95 -78 0 -16 -33 -37 -52
-32 -4 1 -12 -14 -18 -32 -6 -19 -18 -40 -27 -48 -9 -7 -14 -8 -11 -3 8 16 21
49 24 62 1 7 -22 -4 -52 -24 -60 -40 -66 -48 -28 -39 27 7 27 1 -5 -39 -11
-14 -7 -12 12 4 15 14 27 21 27 17 0 -14 -43 -69 -82 -104 -27 -24 -38 -43
-38 -63 0 -22 -4 -27 -16 -22 -8 3 -13 12 -10 19 3 7 0 11 -7 8 -7 -2 -18 -17
-23 -33 -9 -21 -21 -30 -52 -38 l-42 -11 22 31 c12 17 16 27 8 22 -9 -5 -11
-4 -6 3 4 7 15 12 24 12 10 0 49 25 87 56 71 56 101 83 78 70 -7 -4 -17 4 -25
18 l-13 26 -45 -30 c-25 -17 -39 -30 -32 -30 19 0 14 -23 -8 -43 -11 -9 -20
-12 -20 -6 0 7 8 18 18 25 16 12 15 13 -6 14 -23 0 -45 -35 -34 -54 3 -5 1 -6
-5 -3 -6 4 -15 -5 -21 -18 -14 -30 -32 -33 -32 -4 0 11 -4 18 -9 15 -5 -3 -7
-15 -4 -26 3 -11 -1 -30 -9 -42 -44 -69 -61 -101 -51 -95 6 4 11 -3 11 -18 0
-34 -11 -38 -37 -14 -24 23 -23 25 34 112 17 27 17 27 -7 27 -17 0 -48 -24
-108 -85 -45 -47 -80 -88 -77 -91 3 -4 13 1 22 10 21 20 58 30 89 22 22 -5 23
-9 16 -42 -5 -20 -13 -41 -18 -46 -6 -6 -8 -16 -5 -23 2 -7 -5 -16 -17 -20
-31 -10 -127 4 -144 20 -12 12 -40 -14 -190 -172 -97 -102 -173 -189 -169
-193 13 -12 192 -53 206 -47 7 2 45 59 85 125 l73 121 -14 48 c-21 71 -3 105
21 41 16 -43 53 -87 59 -70 7 20 41 14 54 -10 8 -14 14 -18 16 -11 3 7 -4 25
-16 41 -25 36 -31 84 -11 88 8 2 25 6 38 10 17 5 21 3 16 -9 -8 -23 32 -104
56 -110 11 -3 23 -1 26 4 3 5 -4 9 -16 9 -15 0 -20 5 -18 17 2 10 -5 26 -15
36 -18 18 -18 20 -1 38 9 10 25 19 36 19 10 0 18 7 18 15 0 8 -7 15 -15 15
-22 0 -19 37 5 62 l20 22 0 -22 c0 -11 4 -23 9 -26 5 -4 7 3 4 13 -6 25 54 83
78 75 20 -6 49 21 49 44 0 15 2 15 10 2 5 -8 7 -25 4 -37 -5 -18 -1 -22 23
-25 27 -3 26 -4 -20 -27 -26 -13 -54 -35 -63 -50 -14 -25 -14 -25 -8 -2 l6 24
-33 -24 c-44 -30 -50 -40 -37 -57 27 -32 -5 -168 -37 -156 -9 4 -24 -1 -34
-10 -12 -11 -37 -17 -76 -17 -50 -1 -61 2 -76 22 l-17 23 -44 -70 c-24 -38
-65 -103 -91 -145 l-48 -77 -129 33 -130 33 -75 -79 c-41 -44 -80 -79 -85 -79
-6 0 -55 22 -110 50 -55 27 -106 50 -113 50 -7 0 -46 -23 -86 -51 -85 -60 -72
-62 -202 39 -48 37 -167 128 -265 203 l-179 136 -365 88 c-201 49 -386 93
-411 98 l-46 10 -7 75 c-3 41 -6 93 -6 114 l0 39 -118 56 c-64 31 -119 58
-121 60 -4 3 15 180 25 233 4 22 -7 34 -85 93 -50 38 -91 73 -91 78 0 5 63
191 141 412 l141 402 -27 344 c-14 189 -23 347 -18 351 4 4 45 22 89 40 l82
33 11 91 c20 159 22 165 39 170 9 3 58 12 108 21 l90 16 44 126 43 126 181 -7
c100 -3 309 -9 466 -12 l286 -7 279 116 c154 63 296 122 315 130 19 9 40 15
45 16 6 0 37 -33 70 -74z m1043 -518 c43 -34 55 -149 21 -204 -50 -80 -133
-65 -159 29 -8 27 17 99 39 112 5 4 12 19 16 36 8 35 54 50 83 27z m183 -222
c18 -38 24 -72 27 -143 2 -51 1 -105 -3 -119 -6 -26 -7 -26 -33 18 -25 40 -27
53 -28 154 -1 61 -5 126 -9 145 -7 33 -6 34 8 15 8 -11 25 -42 38 -70z m109
-130 c0 -13 5 -27 11 -31 30 -18 -18 -197 -68 -256 -11 -12 -13 -30 -9 -65 4
-27 2 -55 -4 -63 -10 -15 -12 -6 -14 69 -1 14 -9 27 -21 31 -21 8 -63 50 -50
50 4 0 -2 9 -15 20 -19 16 -22 26 -17 56 6 33 5 35 -8 18 -14 -18 -14 -18 -15
-1 0 10 -4 15 -10 12 -6 -4 -10 13 -10 44 0 50 14 68 27 34 4 -10 20 -38 37
-62 17 -25 41 -63 53 -85 l22 -41 1 40 c0 29 3 36 10 25 5 -8 10 -12 12 -10
15 20 50 163 50 202 0 26 4 45 9 42 5 -3 9 -16 9 -29z m-413 -47 c-3 -7 -5 -2
-5 12 0 14 2 19 5 13 2 -7 2 -19 0 -25z m512 -169 c-4 -27 -11 -55 -16 -63
-16 -27 -97 -117 -113 -126 -15 -8 -17 -4 -15 34 2 49 14 68 67 115 20 17 45
53 54 78 14 35 19 42 24 28 4 -10 3 -40 -1 -66z m-449 47 c0 -3 -4 -8 -10 -11
-5 -3 -10 -1 -10 4 0 6 5 11 10 11 6 0 10 -2 10 -4z m195 -177 c-15 -28 -19
-30 -27 -15 -7 13 -4 21 14 35 30 25 33 20 13 -20z m4 -71 c-17 -6 -23 -18
-21 -39 1 -3 -6 -6 -13 -6 -11 0 -12 4 -4 13 6 7 8 17 5 23 -3 5 -4 16 0 24 4
12 10 12 29 3 23 -10 23 -11 4 -18z m65 -71 c-9 -26 -20 -47 -25 -47 -5 0 -2
15 5 33 8 17 17 41 21 51 3 10 8 17 10 14 3 -2 -2 -26 -11 -51z m-34 -12 c0
-3 -9 -14 -19 -24 -16 -16 -22 -17 -37 -7 -16 12 -15 15 12 45 27 30 29 31 36
11 4 -11 8 -22 8 -25z m-18 -67 c-7 -7 -12 -8 -12 -2 0 6 3 14 7 17 3 4 9 5
12 2 2 -3 -1 -11 -7 -17z m-90 -295 c19 -17 25 -73 8 -73 -5 0 -10 11 -10 24
0 13 -7 29 -15 36 -15 13 -20 30 -8 30 3 0 15 -7 25 -17z m444 -131 c34 -16
34 -16 28 -66 -7 -54 -18 -76 -39 -76 -8 0 -15 -3 -17 -7 -1 -5 -20 -20 -40
-36 -30 -22 -47 -27 -86 -26 l-50 2 3 65 c2 40 8 68 17 73 7 5 10 9 7 9 -3 0
13 20 35 45 37 39 45 44 75 39 18 -3 48 -13 67 -22z m-281 -31 c3 -5 2 -12 -3
-15 -5 -3 -9 1 -9 9 0 17 3 19 12 6z m30 -63 c32 -15 41 -50 26 -102 -7 -23
-16 -56 -20 -74 -19 -69 -78 -125 -145 -135 -32 -5 -39 -3 -43 13 -3 11 -14
20 -24 20 -11 0 -19 3 -20 8 -7 55 -4 121 6 137 6 11 18 37 24 58 11 31 22 42
64 62 58 27 94 31 132 13z m-245 -142 c0 -2 -8 -10 -17 -17 -16 -13 -17 -12
-4 4 13 16 21 21 21 13z m409 -37 c31 -50 37 -117 13 -148 -18 -24 -59 -51
-86 -55 -6 -1 -16 -5 -22 -9 -16 -9 -71 11 -78 29 -3 9 -1 24 5 35 5 11 12 39
15 62 3 23 10 47 17 52 7 6 13 17 15 25 7 29 25 40 63 40 33 0 42 -5 58 -31z
m-329 -490 c12 20 53 -138 53 -208 1 -51 -5 -79 -26 -123 -29 -65 -52 -78 -42
-25 4 22 -1 55 -15 98 -21 60 -21 69 -9 134 7 39 14 79 14 90 3 41 6 51 12 36
4 -10 7 -10 13 -2z m-62 -31 c22 -2 -8 -71 -54 -123 -26 -29 -27 -29 -10 -2 9
15 22 37 30 50 8 12 17 33 20 47 6 21 5 22 -4 8 -17 -27 -40 -22 -40 8 0 23 3
25 23 19 12 -3 28 -7 35 -7z m-96 -60 c-5 -5 -18 -8 -27 -6 -15 3 -14 6 7 33
23 30 23 30 26 6 2 -13 -1 -28 -6 -33z m-164 -59 c-3 -8 -7 -3 -11 10 -4 17
-3 21 5 13 5 -5 8 -16 6 -23z m162 -46 c0 -9 -3 -14 -6 -10 -8 7 -46 -32 -40
-41 3 -5 1 -14 -4 -21 -6 -10 -15 -3 -35 28 -32 48 -27 60 18 43 26 -10 34 -9
46 3 19 19 21 19 21 -2z m57 -68 c-3 -46 -11 -95 -18 -107 -27 -51 -89 -113
-89 -88 0 5 6 10 13 10 14 0 14 1 22 105 7 83 21 124 49 147 12 10 23 18 25
18 2 0 1 -38 -2 -85z m-201 -12 c-10 -10 -19 5 -10 18 6 11 8 11 12 0 2 -7 1
-15 -2 -18z m21 -27 c-3 -7 -1 -18 5 -24 6 -6 7 -16 3 -22 -10 -16 -25 0 -31
33 -3 20 0 27 12 27 10 0 14 -6 11 -14z m26 -108 c-2 -5 -10 -8 -18 -8 -7 0
-15 -7 -19 -15 -5 -13 -2 -14 15 -4 11 6 22 9 24 7 9 -9 8 -78 -2 -89 -12 -15
-13 -18 -13 -49 0 -12 -7 -20 -16 -20 -9 0 -18 9 -21 20 -6 24 -5 24 -51 4
-57 -26 -74 -27 -70 -7 2 10 11 17 20 17 10 -1 19 9 23 24 3 13 16 39 29 56
13 17 26 39 29 49 4 9 16 17 28 17 12 0 19 3 16 7 -4 3 -1 13 5 21 10 12 13
11 19 -5 3 -10 5 -21 2 -25z m-141 -90 c-6 -6 -15 -8 -19 -4 -4 4 -1 11 7 16
19 12 27 3 12 -12z m-348 -50 c-5 -7 -1 -9 13 -6 15 4 24 -1 32 -18 10 -22 8
-24 -15 -24 -16 0 -27 7 -33 23 -8 21 -6 37 5 37 3 0 2 -5 -2 -12z m74 -208
c-1 -16 -5 -30 -10 -30 -9 0 -10 7 -2 38 9 30 13 28 12 -8z m-11 -112 c2 -21
-2 -38 -7 -38 -6 0 -9 -4 -7 -9 1 -5 -2 -9 -7 -9 -5 0 -13 -6 -18 -14 -6 -9
-7 -6 -3 9 3 12 0 33 -6 45 -18 32 -19 47 -4 42 7 -3 15 -1 19 4 13 22 31 6
33 -30z m15 10 c-7 -7 -12 -8 -12 -2 0 14 12 26 19 19 2 -3 -1 -11 -7 -17z
m41 7 c-3 -9 -8 -14 -10 -11 -3 3 -2 9 2 15 9 16 15 13 8 -4z"/>
<path d="M2631 4355 l-275 -113 53 -3 c34 -3 147 14 327 47 151 29 277 53 279
56 2 2 -22 31 -53 65 l-57 62 -274 -114z"/>
<path d="M3147 4336 c-32 -8 -60 -15 -62 -18 -2 -2 14 -25 36 -51 l41 -47 79
0 80 0 -33 63 c-37 70 -46 74 -141 53z"/>
<path d="M2825 4275 c-222 -42 -223 -42 -130 -44 44 -1 159 -4 255 -8 l174 -6
-38 46 c-46 56 -34 56 -261 12z"/>
<path d="M1355 4219 c-50 -137 -64 -191 -55 -209 9 -17 7 -20 -8 -20 -14 0
-24 -17 -41 -71 -21 -64 -21 -73 -8 -87 14 -14 21 -13 66 6 45 19 50 19 54 4
3 -12 5 -10 6 6 0 12 7 22 14 22 19 0 69 55 60 65 -5 4 -2 5 5 1 8 -5 23 1 38
15 l24 23 -6 -32 c-7 -32 -1 -38 30 -26 8 3 14 11 12 17 -1 7 -1 9 1 5 3 -4
14 -1 26 6 12 7 108 49 214 92 106 43 191 79 190 81 -2 1 -188 -33 -439 -81
-34 -7 -37 11 -5 23 12 5 149 32 304 60 155 28 301 60 325 70 l43 18 -50 6
c-27 4 -218 9 -422 13 -311 5 -374 4 -378 -7z m18 -119 c-7 -28 -13 -25 -13 6
0 14 4 23 9 20 5 -3 7 -15 4 -26z m43 -62 c13 2 21 9 18 14 -6 9 34 2 45 -8 9
-8 -13 -22 -45 -27 -20 -3 -43 -14 -51 -24 -8 -10 -12 -13 -9 -6 4 7 -5 13
-26 15 -17 2 -33 9 -36 16 -2 7 0 12 5 11 4 -1 21 -1 36 0 24 1 28 4 23 24 -6
21 -6 21 5 1 8 -15 18 -20 35 -16z m136 -47 c2 -17 1 -28 -4 -25 -8 5 -12 54
-4 54 2 0 6 -13 8 -29z"/>
<path d="M2273 4203 c9 -2 23 -2 30 0 6 3 -1 5 -18 5 -16 0 -22 -2 -12 -5z"/>
<path d="M2279 4175 c-119 -23 -193 -43 -260 -72 -52 -22 -136 -57 -187 -78
-72 -30 -90 -41 -81 -51 6 -7 9 -27 7 -45 -2 -25 -11 -37 -38 -52 -40 -21 -97
-73 -112 -101 -9 -16 -8 -18 8 -12 11 3 4 -5 -14 -20 -19 -15 -37 -37 -42 -49
-5 -13 -22 -29 -39 -36 -16 -7 -28 -16 -26 -19 2 -4 -2 -7 -10 -7 -8 0 -12 4
-9 9 8 13 -31 9 -44 -4 -18 -18 -14 -28 11 -27 12 1 29 -1 38 -5 10 -4 19 -2
22 7 3 8 38 36 77 62 99 66 182 74 230 23 23 -25 25 -43 7 -78 -22 -43 -112
-52 -267 -26 -26 4 -28 4 -10 -2 l25 -8 -35 -22 c-30 -19 -59 -27 -120 -35 -8
-1 -16 -14 -18 -30 -3 -21 -9 -27 -28 -27 -14 0 -23 -4 -20 -9 5 -8 -19 -19
-36 -17 -9 1 -47 -70 -53 -97 -2 -9 -10 -24 -17 -32 -7 -8 -19 -22 -27 -31
-19 -22 -27 -6 -35 66 -6 52 -4 58 29 102 19 26 53 57 75 70 24 14 38 28 35
36 -3 8 2 23 10 35 11 15 15 17 16 7 1 -15 16 25 18 48 1 18 -27 15 -38 -5 -9
-16 -10 -16 -11 4 0 12 -10 30 -23 40 -13 10 -34 33 -47 51 -28 38 -38 40 -49
10 -6 -17 0 -29 29 -58 20 -20 42 -51 49 -69 10 -23 16 -29 22 -19 6 9 9 4 9
-14 0 -16 -4 -28 -10 -28 -5 0 -10 4 -10 9 0 5 -15 14 -34 21 -18 6 -44 22
-56 35 -29 30 -36 31 -43 4 -4 -15 5 -31 34 -60 46 -46 48 -62 14 -85 -35 -23
-59 -109 -50 -180 5 -43 4 -54 -8 -54 -7 0 -19 -12 -25 -26 -7 -14 -17 -22
-22 -19 -5 3 -20 8 -32 10 -12 3 -25 10 -29 17 -9 15 -14 11 -23 -18 -5 -17
-2 -23 19 -28 14 -4 23 -11 20 -16 -3 -5 3 -18 15 -30 29 -29 25 -47 -22 -95
-24 -24 -56 -59 -72 -79 -16 -20 -35 -36 -41 -36 -9 0 -10 -14 -4 -52 5 -29 6
-74 3 -100 -6 -44 -5 -47 19 -53 14 -4 31 -4 36 0 7 3 11 -3 11 -15 0 -16 -5
-20 -15 -16 -8 3 -22 3 -30 0 -18 -7 -21 -66 -2 -63 25 3 38 -1 32 -11 -3 -5
0 -10 7 -10 7 0 18 11 25 25 6 15 7 25 1 25 -5 0 -8 10 -6 23 2 13 9 21 18 19
12 -3 12 0 -1 15 -9 10 -22 29 -29 43 -10 21 -10 23 1 13 7 -7 25 -13 40 -13
15 0 30 6 32 13 3 6 6 2 6 -10 1 -27 38 -100 56 -111 16 -9 65 -92 65 -111 0
-11 -3 -11 -15 -1 -9 7 -18 11 -21 8 -2 -3 21 -18 52 -34 73 -37 164 -125 164
-159 0 -38 -33 -65 -80 -65 -63 0 -111 53 -144 159 -15 47 -25 90 -22 98 6 14
-27 36 -38 26 -3 -3 -6 1 -6 10 0 21 -19 22 -26 2 -9 -21 16 -51 27 -33 7 10
9 10 9 -2 0 -9 9 -33 20 -55 14 -27 16 -41 9 -46 -8 -4 -9 -20 -5 -43 5 -25 3
-36 -5 -36 -15 0 -3 -110 17 -159 26 -63 -6 -112 -59 -92 -70 27 -76 111 -17
232 22 46 40 88 40 94 0 7 -11 17 -25 23 -23 11 -25 10 -25 -16 0 -21 -2 -24
-10 -12 -8 11 -10 7 -8 -17 2 -36 -13 -59 -47 -67 -29 -7 -31 -18 -9 -40 14
-14 12 -15 -14 -10 -23 5 -30 1 -39 -18 -9 -21 -11 -20 -19 22 -4 25 -9 48
-10 53 -1 4 -3 33 -4 65 -1 31 -4 50 -7 40 -6 -25 -33 -31 -33 -8 0 10 4 21 9
24 5 3 7 15 4 26 -5 20 12 50 28 50 4 0 4 -13 -1 -30 -11 -38 -5 -38 15 -1 11
23 12 31 2 35 -6 4 -2 4 11 2 14 -3 25 1 29 10 9 25 -1 24 -53 -3 -27 -15 -64
-29 -83 -32 -32 -6 -35 -10 -67 -96 -36 -98 -40 -120 -22 -109 7 4 8 3 4 -5
-4 -6 -11 -9 -15 -7 -7 5 -71 -160 -71 -183 0 -11 134 -116 148 -116 4 0 12
36 17 79 7 52 15 81 24 84 11 4 13 -5 7 -44 -3 -27 -9 -72 -12 -99 l-6 -51 77
-58 78 -59 -7 99 c-13 200 -15 249 -10 231 3 -9 9 -15 13 -13 4 3 13 -72 20
-167 7 -94 16 -174 20 -177 10 -7 412 -313 595 -454 221 -170 269 -190 729
-302 l379 -92 331 231 c183 126 369 255 414 286 79 54 82 57 80 93 -1 21 -7
40 -14 42 -12 5 10 59 38 92 10 12 9 13 -6 8 -16 -7 -17 -2 -13 39 7 60 -8 62
-62 7 -27 -28 -48 -40 -67 -40 -64 1 -68 36 -9 71 19 11 37 27 40 35 3 9 11
12 18 8 9 -5 9 -3 -1 9 -12 15 -11 17 5 18 35 2 59 -3 81 -17 26 -16 53 -18
53 -4 0 6 -10 14 -22 19 -26 10 -64 48 -56 57 15 14 72 6 87 -12 9 -11 25 -18
36 -16 17 3 18 1 5 -8 -12 -9 -10 -10 10 -4 14 3 31 11 37 16 20 16 4 29 -18
17 -16 -8 -26 -7 -45 6 -29 19 -31 32 -4 40 25 8 61 -3 76 -23 12 -16 45 -13
51 4 2 7 -7 14 -20 18 -25 6 -42 31 -31 47 9 15 50 10 83 -8 29 -17 31 -17 48
0 13 12 14 17 4 17 -17 0 -81 47 -81 60 0 5 8 11 18 14 12 4 18 18 20 52 2 45
19 74 42 74 6 0 8 5 4 11 -4 8 -9 8 -17 0 -20 -20 -50 -11 -104 30 -53 41 -62
59 -43 82 6 7 19 24 31 39 11 16 28 28 37 28 11 0 6 9 -16 28 -18 16 -32 33
-32 38 0 5 -9 27 -20 49 -22 43 -25 65 -10 65 6 0 29 14 52 30 23 17 48 28 55
26 16 -6 18 20 2 29 -6 4 -7 14 -3 24 4 9 7 32 8 51 l1 35 53 3 c45 3 52 6 52
24 0 14 5 18 15 14 11 -4 20 3 28 22 6 15 17 32 24 37 22 17 -62 270 -134 400
-80 145 -85 155 -78 155 3 0 26 -28 51 -62 37 -51 44 -57 38 -33 -4 19 -33 55
-75 95 -38 36 -69 72 -69 81 0 9 -9 28 -20 42 -18 23 -19 25 -3 32 10 3 19 2
21 -4 7 -21 115 -145 109 -126 -3 11 -18 62 -33 113 -27 90 -28 92 -43 68 -13
-22 -68 -56 -91 -56 -11 0 -57 47 -71 73 -8 14 -5 19 13 27 13 5 36 18 52 28
22 16 35 18 59 11 17 -5 32 -7 33 -6 2 2 -25 97 -59 212 l-62 210 -105 7 c-57
4 -105 6 -106 5 -3 -4 132 -247 143 -258 10 -10 16 -9 31 4 18 16 19 16 32 -8
7 -14 16 -23 19 -20 3 3 10 -4 17 -17 24 -45 -55 -149 -100 -132 -12 5 -14 12
-9 28 16 44 3 89 -54 194 -31 59 -70 130 -84 157 l-27 50 -78 3 c-74 3 -77 2
-63 -15 9 -10 53 -62 98 -115 45 -53 85 -98 89 -100 4 -2 26 -27 50 -57 36
-46 42 -61 39 -90 -2 -21 -9 -35 -15 -34 -7 2 -12 -2 -12 -7 0 -6 -5 -10 -11
-10 -7 0 -18 -8 -25 -17 -12 -16 -15 -16 -24 -3 -5 8 -10 10 -10 4 0 -6 3 -14
7 -18 4 -3 8 -22 9 -40 1 -26 -4 -37 -20 -45 -18 -10 -18 -11 -1 -5 11 4 32 9
48 12 24 4 27 1 27 -23 0 -40 -46 -80 -108 -94 -29 -6 -60 -11 -67 -11 -16 0
-20 12 -9 23 15 14 9 82 -8 95 -11 8 -19 34 -24 80 -4 37 -5 69 -3 72 6 9 73
30 94 30 12 0 26 -5 33 -12 9 -9 12 -3 12 28 0 21 3 48 6 60 4 16 -21 52 -110
156 l-115 136 -163 6 c-497 17 -529 17 -709 -19z m-274 -220 c14 -13 25 -34
25 -45 0 -20 -44 -70 -62 -70 -5 0 -6 -5 -2 -11 4 -8 -1 -9 -16 -4 -14 4 -20
3 -16 -3 3 -5 -8 -10 -27 -10 -68 -1 -216 -21 -237 -32 -12 -6 -24 -10 -26 -7
-5 4 88 47 103 47 5 0 33 27 62 61 89 101 148 123 196 74z m1465 -45 c27 -28
35 -40 27 -40 -1 0 -17 16 -36 35 -40 43 -32 47 9 5z m-736 -149 c55 -28 110
-51 122 -51 22 0 44 36 44 70 0 15 7 20 28 20 l27 0 -3 -217 c-1 -120 -5 -224
-7 -230 -2 -7 -14 -13 -25 -13 -23 0 -23 0 -39 90 -28 150 -127 290 -232 326
-69 23 -190 23 -241 1 -52 -24 -105 -73 -131 -121 -16 -31 -21 -59 -21 -116 0
-147 60 -219 318 -382 286 -181 371 -255 427 -372 73 -154 33 -373 -88 -473
-99 -83 -216 -123 -359 -123 -118 0 -178 14 -280 66 -50 25 -100 44 -110 43
-13 -3 -24 -20 -33 -52 -12 -40 -18 -47 -39 -47 l-25 0 6 98 c4 53 7 175 7
270 l0 172 23 0 c22 0 25 -7 41 -101 24 -134 84 -258 158 -323 122 -107 336
-109 446 -3 62 59 77 100 77 212 0 180 -29 211 -435 477 -141 93 -228 181
-273 275 -29 62 -32 77 -32 168 0 123 21 187 84 257 88 98 202 140 365 135 96
-4 101 -5 200 -56z m743 -73 c-3 -8 -6 -5 -6 6 -1 11 2 17 5 13 3 -3 4 -12 1
-19z m67 -29 c19 3 24 -3 45 -45 29 -58 23 -83 -37 -141 l-46 -45 -28 33 c-32
38 -34 61 -13 115 26 64 38 84 47 78 4 -3 8 3 8 13 0 14 2 15 9 5 4 -8 11 -13
15 -13z m-128 -134 c-11 -8 -27 -15 -35 -15 -10 1 -7 6 9 15 33 19 50 18 26 0z
m-1778 -23 c35 -25 43 -55 27 -102 -7 -23 -22 -40 -43 -50 -17 -8 -36 -24 -42
-36 -16 -29 -40 -26 -41 5 -1 14 -2 31 -4 36 -1 6 -3 15 -3 22 -1 6 -12 13
-24 15 -15 2 -24 11 -26 26 -3 16 -16 28 -45 39 l-42 17 60 28 c71 33 135 33
183 0z m1687 -82 c3 -6 -1 -10 -9 -10 -8 0 -20 9 -26 21 -11 19 -10 20 9 10
11 -6 23 -16 26 -21z m-1859 -4 c3 -14 17 -32 30 -41 19 -12 24 -24 24 -58 -1
-37 -5 -45 -38 -68 l-38 -26 -25 21 c-19 16 -26 32 -28 66 -1 25 -7 58 -13 74
-10 24 -9 31 7 42 10 8 31 14 47 14 21 0 29 -6 34 -24z m1961 -8 c-3 -8 -6 -5
-6 6 -1 11 2 17 5 13 3 -3 4 -12 1 -19z m213 -78 c4 -8 2 -20 -4 -26 -20 -20
-46 29 -45 83 l0 48 21 -45 c11 -25 24 -52 28 -60z m110 30 c0 -4 -6 -7 -14
-7 -8 0 -12 6 -9 14 3 7 0 13 -6 13 -6 0 -11 5 -11 12 0 6 9 3 20 -7 11 -10
20 -21 20 -25z m-2390 20 c-8 -5 -10 -10 -5 -10 6 0 3 -5 -5 -10 -13 -8 -12
-10 3 -10 9 0 17 -4 17 -10 0 -5 -9 -10 -20 -10 -11 0 -20 -4 -20 -9 0 -5 -7
-12 -16 -15 -13 -5 -14 -4 -6 7 7 8 9 16 6 20 -10 9 27 57 45 57 14 0 14 -2 1
-10z m1989 -17 c1 5 7 5 14 0 6 -4 18 -8 26 -10 8 -1 17 -6 20 -11 3 -4 17 -6
31 -2 17 4 21 8 12 14 -7 4 -10 12 -6 17 7 12 34 -8 34 -26 0 -23 37 -56 55
-48 14 5 16 3 10 -7 -6 -10 -4 -12 8 -7 10 4 17 2 17 -5 0 -7 4 -7 14 1 16 13
70 6 101 -12 11 -7 39 -12 62 -11 26 1 41 -2 40 -9 -1 -6 4 -11 12 -12 8 0 15
-7 17 -15 1 -8 14 -43 28 -78 14 -35 23 -69 20 -77 -3 -7 -1 -16 5 -20 6 -3
11 -11 11 -17 0 -7 -9 -2 -21 10 -14 15 -18 29 -14 43 4 13 3 19 -2 16 -6 -4
-23 8 -39 26 -29 31 -29 32 -1 8 42 -38 32 -10 -14 36 -62 63 -123 85 -236 87
-24 1 -43 4 -43 9 0 4 -9 7 -20 7 -26 0 -92 33 -110 55 -9 11 -15 12 -20 5 -4
-7 -13 -2 -24 15 -9 14 -14 31 -10 37 5 8 10 5 15 -8 4 -10 8 -15 8 -11z m393
-63 c3 -18 0 -30 -7 -30 -6 0 -11 15 -11 34 0 41 12 39 18 -4z m-2382 -10 c0
-5 -7 -10 -15 -10 -8 0 -15 5 -15 10 0 6 7 10 15 10 8 0 15 -4 15 -10z m2163
-52 c31 -7 57 -15 57 -18 0 -8 -68 -3 -134 11 -45 9 -55 14 -40 20 10 5 28 6
39 4 11 -3 46 -10 78 -17z m-1857 -12 c22 -15 24 -22 20 -68 -3 -34 -12 -58
-27 -74 -28 -30 -59 -32 -59 -4 0 12 -12 26 -30 35 -16 8 -33 27 -36 41 -7 29
-1 39 18 28 14 -9 38 -14 38 -9 0 18 -22 55 -30 50 -6 -4 -7 1 -3 11 8 20 71
14 109 -10z m-240 -20 c28 -29 17 -53 -30 -66 -25 -7 -66 -23 -93 -35 -44 -21
-48 -22 -61 -7 -7 10 -10 11 -6 3 5 -11 3 -13 -10 -8 -10 4 -22 7 -27 7 -5 0
-9 5 -9 10 0 6 3 9 8 8 4 -2 21 7 37 20 24 19 27 25 15 32 -23 14 -34 12 -21
-4 10 -12 7 -15 -18 -14 -17 1 -31 2 -31 4 0 16 16 34 30 34 11 0 22 5 26 11
4 7 24 9 55 5 41 -6 50 -4 61 13 9 15 17 17 36 10 13 -5 30 -15 38 -23z m2244
10 c0 -2 -18 -6 -39 -8 -22 -2 -37 0 -35 4 5 8 74 11 74 4z m30 -16 c0 -5 -4
-10 -10 -10 -5 0 -10 5 -10 10 0 6 5 10 10 10 6 0 10 -4 10 -10z m34 -6 c9 -3
13 -10 10 -15 -3 -5 3 -9 13 -10 10 0 13 -3 6 -5 -15 -6 -53 13 -53 26 0 12 3
12 24 4z m-60 -12 c8 -13 -7 -28 -42 -40 -30 -10 -32 -10 -22 8 16 30 54 49
64 32z m-199 -22 c4 -6 -6 -10 -22 -10 -22 0 -25 2 -13 10 19 12 27 12 35 0z
m-2295 -35 c0 -8 -7 -15 -15 -15 -9 0 -12 6 -9 15 4 8 10 15 15 15 5 0 9 -7 9
-15z m358 -19 c23 -10 42 -22 42 -26 0 -4 -9 -19 -21 -33 l-20 -26 -34 22
c-19 12 -36 27 -38 32 -6 14 11 57 20 53 5 -2 27 -12 51 -22z m-134 -12 c22
-22 20 -30 -14 -54 -16 -12 -33 -35 -38 -52 -6 -25 -16 -33 -47 -43 -22 -6
-64 -12 -93 -13 -44 -1 -55 3 -66 21 -17 26 -11 71 12 89 12 10 14 10 8 1 -4
-7 -3 -13 3 -13 5 0 13 4 16 10 3 5 28 12 55 16 27 3 66 17 87 30 45 28 57 29
77 8z m-314 -72 c-16 -31 -21 -59 -21 -112 0 -39 3 -75 6 -80 8 -13 -38 -8
-47 5 -5 6 -8 6 -8 -2 0 -20 -39 -2 -61 28 l-20 28 25 13 c27 15 96 94 96 111
0 12 41 59 47 53 2 -2 -6 -22 -17 -44z m403 2 c34 -12 19 -41 -38 -68 -45 -22
-58 -25 -76 -16 -16 9 -19 17 -14 38 4 15 12 30 18 34 7 4 21 13 32 21 13 10
25 12 40 6 11 -5 28 -12 38 -15z m162 -46 c-2 -34 -25 -34 -25 0 0 16 3 32 7
35 10 10 20 -10 18 -35z m-50 22 c3 -5 -1 -10 -9 -10 -9 0 -16 5 -16 10 0 6 4
10 9 10 6 0 13 -4 16 -10z m-249 -59 c-3 -5 8 -14 24 -21 31 -13 34 -18 24
-44 -12 -32 -125 -14 -139 22 -7 19 -5 21 42 37 45 17 56 18 49 6z m236 -23
c-7 -7 -12 -8 -12 -2 0 14 12 26 19 19 2 -3 -1 -11 -7 -17z m-28 -22 c11 -56
-15 -95 -62 -96 -13 0 -21 -4 -17 -9 9 -15 -48 -100 -71 -107 -17 -4 -23 -16
-27 -52 -6 -56 -33 -82 -87 -82 -45 0 -97 32 -123 78 -17 29 -17 31 -2 26 15
-6 16 -4 6 14 -6 12 -21 28 -34 37 l-22 16 25 19 c33 25 62 25 86 -1 24 -27
52 -42 64 -34 6 4 1 15 -12 27 -19 16 -20 19 -5 14 25 -8 43 4 26 16 -10 6 0
8 29 5 25 -3 42 -1 42 5 0 6 14 8 33 5 19 -3 40 -1 48 4 12 7 12 9 -1 10 -22
1 -51 7 -55 11 -9 10 17 48 33 48 11 0 37 18 58 40 21 21 44 39 50 40 7 0 15
-15 18 -34z m-415 -2 c27 -34 26 -45 -3 -74 l-25 -23 -5 24 c-12 52 -10 99 3
99 5 0 19 -12 30 -26z m73 -21 c8 -10 14 -25 14 -33 -1 -24 -29 -17 -43 9 -19
39 1 56 29 24z m68 -38 c0 -17 -16 -35 -30 -35 -16 0 -17 3 -7 24 6 13 17 21
24 19 7 -3 13 -7 13 -8z m1768 -120 c-3 -3 -9 2 -12 12 -6 14 -5 15 5 6 7 -7
10 -15 7 -18z m-2206 -382 c-9 -67 -20 -114 -29 -123 -14 -13 -15 -10 -10 30
4 25 9 72 13 105 3 33 13 68 22 78 8 9 16 17 17 17 0 0 -5 -48 -13 -107z m-63
-17 c-6 -13 -22 -29 -35 -35 -21 -9 -20 -6 8 23 40 42 40 42 27 12z m452 -109
c44 -44 79 -83 79 -87 0 -5 7 -15 15 -24 9 -8 16 -36 18 -63 2 -42 -1 -49 -25
-62 -35 -20 -75 -6 -104 37 -17 24 -24 54 -29 124 -6 75 -13 102 -36 144 -16
28 -29 55 -29 60 1 5 8 -4 17 -21 9 -16 51 -65 94 -108z m-288 50 c-2 -12 -16
-28 -30 -34 -25 -12 -25 -12 -7 8 11 13 17 32 15 47 -2 22 -1 24 12 14 8 -7
12 -22 10 -35z m2422 -150 c12 -10 14 -16 7 -21 -7 -4 -12 -15 -12 -26 0 -28
-28 -32 -73 -10 -40 19 -37 20 25 6 26 -6 27 -5 21 29 -6 37 2 43 32 22z m-79
-91 c46 -25 50 -30 46 -57 -4 -30 -36 -47 -67 -35 -22 8 -18 41 7 58 22 14 21
15 -20 38 -23 13 -39 27 -35 33 3 6 8 6 12 0 3 -5 29 -22 57 -37z m254 1 c0
-12 -4 -16 -12 -11 -8 5 -7 0 2 -11 13 -16 13 -18 0 -13 -8 3 -15 16 -15 29 0
13 -4 30 -9 37 -7 11 -4 11 13 0 12 -7 21 -21 21 -31z m-95 -7 c3 -5 1 -10 -4
-10 -6 0 -11 5 -11 10 0 6 2 10 4 10 3 0 8 -4 11 -10z m-1397 -146 c12 -8 22
-24 23 -37 4 -71 -13 -102 -65 -116 -55 -15 -66 0 -66 85 0 65 -2 75 -17 72
-22 -4 -29 -28 -9 -28 18 0 21 -16 6 -25 -11 -7 -40 11 -40 24 1 45 109 62
168 25z m176 20 c9 -3 16 -10 16 -15 0 -5 -12 -4 -26 1 -36 14 -36 14 -32 -27
2 -30 8 -39 28 -44 l25 -7 -27 -1 c-23 -1 -28 -6 -28 -25 0 -29 21 -48 46 -40
11 3 9 -1 -5 -9 -40 -24 -81 -1 -81 44 0 16 -6 29 -12 30 -10 0 -10 2 0 6 18
7 16 73 -2 73 -23 0 -31 -22 -12 -32 18 -10 13 -28 -9 -28 -21 0 -27 31 -9 51
20 23 94 36 128 23z m128 -17 c8 -13 1 -27 -13 -27 -5 0 -9 7 -9 15 0 8 -7 15
-15 15 -25 0 -17 -33 20 -79 41 -51 43 -63 14 -92 -24 -24 -77 -23 -93 3 -17
27 4 35 23 9 10 -13 23 -21 30 -17 20 13 12 52 -19 91 -16 21 -30 46 -30 56 0
39 70 59 92 26z m116 -70 c3 -81 1 -88 -15 -85 -15 3 -18 16 -21 81 -2 66 -5
78 -19 75 -22 -4 -29 -28 -8 -28 20 0 14 -24 -7 -28 -18 -3 -30 21 -22 42 6
16 51 36 74 33 12 -2 16 -21 18 -90z m151 77 c17 -12 20 -19 11 -28 -8 -8 -15
-6 -25 8 -20 26 -42 14 -56 -32 -9 -32 -9 -45 2 -68 20 -41 49 -44 49 -6 0 17
-6 33 -12 35 -7 3 4 6 25 6 34 1 37 -1 27 -18 -12 -23 10 -51 40 -51 24 0 30
19 30 92 0 55 -1 59 -22 56 -30 -4 -34 -24 -6 -31 17 -5 20 -9 11 -18 -16 -16
-43 -4 -43 20 0 27 43 55 73 47 15 -3 32 -24 49 -58 l27 -53 0 38 c1 68 10 75
98 75 43 0 86 -2 96 -5 29 -8 19 -20 -13 -15 -29 4 -30 3 -30 -32 0 -32 3 -36
28 -37 l27 -2 -27 -4 c-23 -4 -28 -9 -28 -33 0 -25 4 -29 33 -32 l32 -3 -30
-11 c-43 -16 -75 -2 -75 34 0 15 -5 33 -12 40 -9 9 -9 12 0 12 7 0 12 14 12
35 0 39 -2 40 -33 24 l-21 -12 24 -9 c17 -6 20 -12 12 -20 -6 -6 -18 -8 -28
-4 -12 5 -15 14 -10 37 5 25 3 30 -12 27 -14 -3 -18 -16 -20 -78 -3 -66 0 -77
18 -92 30 -25 4 -35 -28 -11 -15 11 -39 44 -54 74 -23 46 -28 50 -28 27 0 -59
-46 -116 -72 -90 -8 8 -17 1 -32 -21 -17 -25 -30 -33 -59 -35 -22 -2 -37 1
-37 8 0 6 10 8 24 4 18 -4 27 -1 35 14 10 18 7 21 -19 27 -82 18 -94 144 -16
175 31 13 39 12 65 -6z m539 0 c23 -16 29 -53 12 -70 -12 -12 32 -99 58 -113
16 -9 15 -10 -2 -17 -27 -10 -47 6 -76 59 -26 49 -42 61 -35 28 2 -11 1 -29
-2 -40 -4 -17 -9 -19 -24 -10 -16 8 -19 21 -19 85 0 65 -2 75 -17 72 -22 -4
-29 -28 -9 -28 18 0 21 -16 5 -26 -16 -9 -41 20 -33 39 12 33 106 47 142 21z
m242 -281 c-35 -11 -80 -34 -85 -42 -3 -5 -16 0 -29 12 -14 12 -22 25 -20 29
3 5 38 8 77 7 40 0 65 -3 57 -6z m-365 -43 c49 -11 78 -27 71 -39 -2 -3 26 -4
62 0 37 3 68 5 70 3 9 -6 -72 -25 -88 -21 -11 3 -21 -2 -25 -11 -5 -14 -7 -14
-15 -2 -7 10 -10 11 -10 3 0 -7 -5 -13 -11 -13 -5 0 -7 5 -4 11 10 16 -28 7
-41 -10 -6 -8 -18 -12 -27 -8 -9 3 -18 1 -21 -6 -2 -7 -5 -5 -5 5 -1 9 8 20
19 23 26 8 18 22 -15 24 -48 3 -53 4 -48 17 2 6 -1 15 -6 19 -18 11 -2 25 22
20 12 -3 44 -10 72 -15z m-272 -25 c-2 -5 -7 -10 -12 -10 -5 0 -13 -3 -17 -7
-12 -13 -23 -9 -34 13 -11 19 -9 20 27 17 21 -2 37 -7 36 -13z m152 -55 c3 -5
1 -10 -4 -10 -6 0 -11 5 -11 10 0 6 2 10 4 10 3 0 8 -4 11 -10z m-424 -19 c-6
-10 -7 -21 -4 -25 3 -3 1 -6 -5 -6 -6 0 -14 5 -17 10 -10 16 2 40 20 40 12 0
13 -4 6 -19z m759 0 c0 -6 -4 -13 -10 -16 -5 -3 -10 1 -10 9 0 9 5 16 10 16 6
0 10 -4 10 -9z m-30 -14 c0 -7 -15 -21 -32 -32 -25 -14 -30 -15 -20 -3 10 13
10 16 0 15 -55 -2 -67 19 -15 26 61 7 67 7 67 -6z m-140 -26 c-19 -11 -38 -17
-42 -14 -5 2 -8 -3 -8 -11 0 -10 -6 -13 -17 -9 -15 5 -14 3 2 -10 17 -14 18
-16 3 -17 -9 0 -24 -7 -32 -16 -14 -13 -16 -14 -16 0 0 8 5 18 11 22 6 3 8 15
6 26 -6 21 0 25 51 32 19 2 36 7 40 10 3 3 12 6 21 6 9 -1 0 -9 -19 -19z
m-547 -45 c-23 -16 -85 -37 -91 -32 -2 3 7 8 22 12 14 3 26 11 26 16 0 6 7 7
15 4 9 -3 18 1 21 9 4 8 10 12 16 9 5 -3 1 -12 -9 -18z m-117 -64 c0 -10 -5
-19 -12 -19 -6 0 -9 9 -6 19 2 10 7 18 11 18 4 0 7 -8 7 -18z m222 -42 c-1
-18 -7 -26 -15 -23 -7 3 -13 0 -13 -6 0 -6 -4 -11 -10 -11 -11 0 -13 30 -4 54
3 9 10 13 15 10 5 -3 9 0 9 6 0 6 5 8 10 5 6 -4 9 -19 8 -35z"/>
<path d="M1550 3332 c6 -13 14 -21 18 -18 3 4 -2 14 -12 24 -18 16 -18 16 -6
-6z"/>
<path d="M1285 3189 c4 -5 1 -17 -7 -26 -12 -15 -11 -15 10 -4 26 14 28 26 6
35 -9 3 -12 2 -9 -5z"/>
<path d="M1255 3131 c-3 -5 -1 -12 5 -16 5 -3 10 1 10 9 0 18 -6 21 -15 7z"/>
<path d="M1990 1795 c0 -59 3 -75 15 -75 21 0 35 33 35 82 0 44 -13 68 -37 68
-10 0 -13 -20 -13 -75z"/>
<path d="M3128 1835 c-2 -22 0 -34 6 -32 14 4 21 67 8 67 -6 0 -12 -16 -14
-35z"/>
<path d="M1139 3963 l-76 -15 -13 -104 c-7 -58 -10 -107 -7 -110 2 -3 34 7 69
22 l65 26 28 87 c15 47 30 92 32 99 6 14 2 14 -98 -5z"/>
<path d="M1545 3907 c-28 -11 -52 -22 -54 -23 -1 -2 4 -13 13 -26 9 -12 16
-36 16 -53 0 -23 -3 -27 -10 -15 -8 12 -10 13 -10 1 0 -8 -8 -24 -17 -35 -17
-20 -17 -20 0 -7 17 13 18 12 12 -11 -6 -22 -3 -26 19 -30 23 -5 27 -1 37 36
29 104 36 146 26 146 -6 0 -2 6 9 14 32 24 12 26 -41 3z"/>
<path d="M1302 3810 c-23 -19 -23 -25 11 -97 14 -31 29 -18 22 20 -4 18 -2 44
4 59 13 34 -6 43 -37 18z m20 -2 c-5 -7 -12 -22 -15 -33 -5 -20 -5 -20 -6 1 0
11 4 25 11 32 16 16 23 15 10 0z"/>
<path d="M1432 3770 c0 -14 2 -19 5 -12 2 6 2 18 0 25 -3 6 -5 1 -5 -13z"/>
<path d="M1094 3722 c-61 -24 -62 -25 -68 -71 -29 -207 -56 -425 -54 -433 2
-6 30 68 63 163 32 96 73 214 92 263 18 49 32 92 31 96 -2 3 -31 -5 -64 -18z"/>
<path d="M1399 3723 c-13 -16 -12 -17 4 -4 16 13 21 21 13 21 -2 0 -10 -8 -17
-17z"/>
<path d="M923 3651 c-75 -31 -71 0 -43 -346 11 -132 20 -251 20 -265 1 -63 20
17 40 166 12 87 30 223 41 301 21 159 22 173 12 172 -5 -1 -36 -13 -70 -28z"/>
<path d="M3977 3363 c-4 -3 -7 -11 -7 -17 0 -6 5 -5 12 2 6 6 9 14 7 17 -3 3
-9 2 -12 -2z"/>
<path d="M3885 3285 c3 -22 21 -71 40 -110 31 -66 34 -68 35 -37 2 17 4 37 5
42 1 6 3 15 4 21 1 13 26 7 27 -7 3 -39 56 -105 68 -85 11 17 -37 90 -66 102
-15 6 -25 15 -22 20 3 5 2 8 -3 7 -4 -2 -27 17 -51 42 l-44 45 7 -40z"/>
<path d="M3960 3024 c0 -17 24 -84 30 -84 18 0 17 16 -1 51 -18 36 -29 48 -29
33z"/>
<path d="M845 2759 c-8 -25 -1 -34 20 -26 19 8 20 47 1 47 -8 0 -18 -9 -21
-21z"/>
<path d="M3839 2744 c-4 -25 -2 -31 9 -26 10 3 13 0 10 -9 -3 -8 -11 -13 -17
-11 -6 1 -11 -4 -11 -11 0 -8 -10 -19 -22 -25 -14 -6 -17 -11 -8 -11 8 0 26 6
40 14 29 17 44 19 35 6 -3 -5 -1 -12 5 -16 12 -8 9 -75 -4 -75 -5 0 -7 -3 -3
-6 3 -4 26 5 50 19 l44 26 -11 43 c-9 40 -12 44 -37 40 -20 -3 -30 2 -39 17
-6 12 -15 19 -20 16 -5 -3 -10 5 -12 17 -3 19 -5 18 -9 -8z m71 -139 c-7 -9
-15 -13 -19 -10 -3 3 1 10 9 15 21 14 24 12 10 -5z"/>
<path d="M4400 2737 c27 -15 36 -14 25 2 -3 6 -16 11 -28 11 -21 0 -21 -1 3
-13z"/>
<path d="M890 2653 c0 -13 5 -23 10 -23 13 0 13 11 0 30 -8 12 -10 11 -10 -7z"/>
<path d="M799 2634 c-13 -35 -8 -38 35 -20 45 19 48 46 6 46 -24 0 -33 -6 -41
-26z"/>
<path d="M3772 2550 c0 -14 2 -19 5 -12 2 6 2 18 0 25 -3 6 -5 1 -5 -13z"/>
<path d="M3780 2506 c0 -8 7 -19 15 -24 21 -11 9 -40 -18 -45 -18 -3 -17 -5 6
-6 15 0 27 4 27 9 0 6 9 19 19 29 16 16 26 18 67 10 26 -5 50 -7 52 -4 3 3 -2
5 -10 5 -9 0 -21 7 -28 15 -8 10 -21 13 -33 9 -11 -3 -17 -2 -14 3 3 5 -3 9
-13 9 -10 0 -17 -3 -14 -7 9 -15 -26 -17 -41 -3 -13 14 -15 14 -15 0z"/>
<path d="M977 2495 c-4 -11 -10 -27 -13 -35 -3 -8 1 -5 11 8 9 12 15 28 13 34
-3 7 -7 4 -11 -7z"/>
<path d="M3922 2079 c-12 -5 -25 -15 -28 -23 -3 -8 -16 -17 -29 -20 -12 -3
-25 -15 -28 -27 -4 -14 -11 -20 -21 -16 -16 6 -43 -19 -32 -30 3 -3 6 -2 6 4
0 12 31 13 46 1 8 -6 19 3 33 26 24 38 49 52 65 36 6 -6 16 -4 28 7 25 23 22
31 -9 26 -22 -3 -24 -2 -9 5 27 12 7 22 -22 11z"/>
<path d="M3955 1977 c-12 -28 -11 -32 1 -35 23 -5 46 6 42 20 -3 7 4 20 15 29
20 15 19 16 -12 17 -27 1 -35 -4 -46 -31z"/>
<path d="M4030 1965 c0 -15 6 -25 14 -25 23 0 25 13 4 33 -17 16 -18 16 -18
-8z"/>
<path d="M4105 1980 c-16 -7 -17 -9 -3 -9 9 -1 20 4 23 9 7 11 7 11 -20 0z"/>
<path d="M792 1878 c-20 -142 -25 -130 85 -182 53 -26 98 -44 100 -42 3 2 1
46 -4 97 l-8 93 -75 58 c-41 31 -78 57 -81 57 -3 1 -11 -36 -17 -81z"/>
<path d="M3760 1952 c0 -13 -37 -53 -46 -50 -5 1 -19 -1 -31 -5 -18 -7 -21
-13 -16 -41 5 -33 -10 -76 -27 -76 -5 0 -15 18 -21 40 -13 43 -44 58 -34 17 4
-12 1 -35 -4 -50 -9 -22 -8 -27 4 -27 8 0 15 -5 15 -11 0 -6 9 -8 20 -4 16 5
19 3 13 -11 -5 -15 -2 -16 25 -11 24 5 34 2 41 -11 10 -16 10 -16 11 0 0 9 -5
20 -10 23 -6 4 7 28 32 57 70 83 77 98 60 130 -14 29 -32 46 -32 30z m-11
-110 c-7 -14 -18 -25 -24 -26 -18 -2 -17 44 1 72 l17 26 11 -23 c7 -17 6 -30
-5 -49z"/>
<path d="M3443 1856 c6 -17 30 -18 51 -3 17 12 15 14 -18 14 -22 0 -35 -5 -33
-11z"/>
<path d="M3822 1848 c-27 -29 -82 -111 -77 -116 2 -2 34 17 72 43 59 41 64 46
35 40 l-34 -7 17 31 c19 37 16 39 -13 9z"/>
<path d="M1002 1728 c6 -73 11 -94 25 -102 31 -19 573 -274 573 -271 0 4 -169
134 -435 335 -82 62 -155 117 -160 121 -7 5 -8 -22 -3 -83z"/>
<path d="M3613 1691 c1 -5 -11 -21 -28 -36 l-30 -27 30 15 c17 8 36 12 43 10
13 -5 15 6 6 31 -6 17 -26 23 -21 7z"/>
<path d="M1016 1523 c9 -124 4 -117 86 -136 40 -9 195 -45 343 -81 149 -36
281 -68 295 -71 55 -13 -8 24 -155 93 -82 39 -244 116 -359 171 -114 56 -210
101 -212 101 -2 0 -1 -35 2 -77z"/>
<path d="M3067 1222 l-328 -227 88 -22 c48 -13 93 -22 100 -20 15 3 486 499
471 496 -2 0 -151 -102 -331 -227z"/>
<path d="M3349 1353 l-24 -28 28 24 c25 23 32 31 24 31 -2 0 -14 -12 -28 -27z"/>
<path d="M1906 1161 c5 -4 47 -37 94 -73 311 -236 376 -285 386 -291 6 -3 39
14 74 38 l63 45 -134 64 c-74 35 -201 96 -284 136 -141 68 -221 100 -199 81z"/>
<path d="M2091 1117 c2 -2 106 -52 232 -112 l227 -108 56 38 c30 21 51 41 47
45 -7 7 -542 140 -560 140 -3 0 -4 -1 -2 -3z"/>
<path d="M2642 928 l-62 -43 99 -49 100 -48 58 62 c32 34 59 66 61 69 2 6
-168 52 -188 51 -3 0 -34 -19 -68 -42z"/>
<path d="M3980 3888 c0 -23 17 -41 25 -29 5 9 10 9 21 0 8 -7 14 -7 14 -1 0 9
-43 42 -55 42 -3 0 -5 -6 -5 -12z"/>
<path d="M3970 3705 c0 -8 2 -15 4 -15 2 0 6 7 10 15 3 8 1 15 -4 15 -6 0 -10
-7 -10 -15z"/>
<path d="M4252 3290 c0 -14 2 -19 5 -12 2 6 2 18 0 25 -3 6 -5 1 -5 -13z"/>
<path d="M4269 2373 l-24 -28 28 24 c25 23 32 31 24 31 -2 0 -14 -12 -28 -27z"/>
<path d="M4245 2329 c-4 -6 -5 -12 -2 -15 2 -3 7 2 10 11 7 17 1 20 -8 4z"/>
</g>
</svg>
